<svg id="Layer_1" width="184.75" height="101.14" enable-background="new 0 0 141 72" gorn="0" version="1.1" viewBox="0 0 184.75 101.14" xmlns="http://www.w3.org/2000/svg">
 <desc id="desc1">
  <referenceFile>LuaNode32_ESP32_Fritzing_PCB.svg</referenceFile>
 </desc>
 <g id="silkscreen" transform="matrix(.93885 0 0 .93885 1.8764 .30486)" gorn="0.3.0.0.0.0.0.0.0.0.0">
  <path id="rect4922" d="m185.39 107.02c4.9941 0 9.0137-4.015 9.0137-9.002v-88.969c0-4.987-4.0195-9.002-9.0137-9.002h-176.33c-4.9941 0-9.0156 4.015-9.0156 9.002v88.969c0 4.987 4.0215 9.002 9.0156 9.002zm-0.41797-4.1836a5.4915 5.4915 0 0 1-5.4922-5.4922 5.4915 5.4915 0 0 1 5.4922-5.4922 5.4915 5.4915 0 0 1 5.4902 5.4922 5.4915 5.4915 0 0 1-5.4902 5.4922zm-176.28 0a5.4915 5.4915 0 0 1-5.4922-5.4922 5.4915 5.4915 0 0 1 5.4922-5.4922 5.4915 5.4915 0 0 1 5.4902 5.4922 5.4915 5.4915 0 0 1-5.4902 5.4922zm176.28-88.27a5.4915 5.4915 0 0 1-5.4922-5.4922 5.4915 5.4915 0 0 1 5.4922-5.4902 5.4915 5.4915 0 0 1 5.4902 5.4902 5.4915 5.4915 0 0 1-5.4902 5.4922zm-176.28 0a5.4915 5.4915 0 0 1-5.4922-5.4922 5.4915 5.4915 0 0 1 5.4922-5.4902 5.4915 5.4915 0 0 1 5.4902 5.4902 5.4915 5.4915 0 0 1-5.4902 5.4922z" fill="none" stroke="#000" stroke-width=".75" gorn="0.3.0.0.0.0.0.0.0.0.0.0"/>
  <g id="g8" transform="scale(-1)">
   <g id="g7">
    <g id="g6">
     <g id="g5">
      <g id="g4">
       <g id="g3">
        <g id="g2">
         <g id="g1">
          <rect id="rect304-8-1" x="-19.895" y="-67.513" width="21.518" height="28.564" fill="none" stroke="#000" stroke-width=".75" gorn="0.3.0.0.0.0.0.0.0.0.0.1.0.0.0.0.0.0.0.0"/>
         </g>
        </g>
       </g>
      </g>
     </g>
    </g>
   </g>
  </g>
  <g fill="#000000" font-family="OCRA">
   <g font-size="3.3292px" stroke-width="1.3317">
    <text id="text5979" x="33.620117" y="15.33882" gorn="0.3.0.0.0.0.0.0.0.0.0.6">Vin</text>
    <text id="text5981" x="43.139557" y="15.33882" gorn="0.3.0.0.0.0.0.0.0.0.0.7">GND</text>
    <text id="text5983" x="52.659088" y="15.33882" gorn="0.3.0.0.0.0.0.0.0.0.0.8">D13</text>
    <text id="text5985" x="62.263397" y="15.33882" gorn="0.3.0.0.0.0.0.0.0.0.0.9">D12</text>
    <text id="text5987" x="71.697906" y="15.33882" gorn="0.3.0.0.0.0.0.0.0.0.0.10">D14</text>
    <text id="text5989" x="81.217468" y="15.33882" gorn="0.3.0.0.0.0.0.0.0.0.0.11">D27</text>
    <text id="text5991" x="90.736885" y="15.33882" gorn="0.3.0.0.0.0.0.0.0.0.0.12">D26</text>
    <text id="text5993" x="100.25645" y="15.33882" gorn="0.3.0.0.0.0.0.0.0.0.0.13">D25</text>
    <text id="text5995" x="109.7784" y="15.33882" gorn="0.3.0.0.0.0.0.0.0.0.0.14">D33</text>
    <text id="text5997" x="119.29796" y="15.33882" gorn="0.3.0.0.0.0.0.0.0.0.0.15">D32</text>
    <text id="text5999" x="128.81738" y="15.33882" gorn="0.3.0.0.0.0.0.0.0.0.0.16">D35</text>
    <text id="text6001" x="138.33693" y="15.33882" gorn="0.3.0.0.0.0.0.0.0.0.0.17">D34</text>
    <text id="text6003" x="149.98849" y="15.33882" gorn="0.3.0.0.0.0.0.0.0.0.0.18">VN</text>
    <text id="text6005" x="159.50792" y="15.33882" gorn="0.3.0.0.0.0.0.0.0.0.0.19">VP</text>
    <text id="text6007" x="168.33887" y="15.33882" gorn="0.3.0.0.0.0.0.0.0.0.0.20">EN</text>
   </g>
   <g font-size="3.3323px" stroke-width="1.3329">
    <text id="text6298" x="168.36188" y="94.672531" gorn="0.3.0.0.0.0.0.0.0.0.0.21">D23</text>
    <text id="text6300" x="158.64407" y="94.675186" gorn="0.3.0.0.0.0.0.0.0.0.0.22">D22</text>
    <text id="text6302" x="148.92575" y="94.675186" gorn="0.3.0.0.0.0.0.0.0.0.0.23">TX0</text>
    <text id="text6304" x="139.20808" y="94.675186" gorn="0.3.0.0.0.0.0.0.0.0.0.24">RX0</text>
    <text id="text6306" x="129.49043" y="94.675186" gorn="0.3.0.0.0.0.0.0.0.0.0.25">D21</text>
    <text id="text6308" x="120.07739" y="94.675186" gorn="0.3.0.0.0.0.0.0.0.0.0.26">D19</text>
    <text id="text6310" x="110.50951" y="94.675186" gorn="0.3.0.0.0.0.0.0.0.0.0.27">D18</text>
    <text id="text6312" x="102.23508" y="94.672531" gorn="0.3.0.0.0.0.0.0.0.0.0.28">D5</text>
    <text id="text6314" x="91.428467" y="94.675186" gorn="0.3.0.0.0.0.0.0.0.0.0.29">TX2</text>
    <text id="text6316" x="81.560242" y="94.672531" gorn="0.3.0.0.0.0.0.0.0.0.0.30">RX2</text>
    <text id="text6318" x="73.253876" y="94.675186" gorn="0.3.0.0.0.0.0.0.0.0.0.31">D4</text>
    <text id="text6320" x="63.873322" y="94.672531" gorn="0.3.0.0.0.0.0.0.0.0.0.32">D2</text>
    <text id="text6322" x="53.185913" y="94.675186" gorn="0.3.0.0.0.0.0.0.0.0.0.33">D15</text>
    <text id="text6324" x="43.233902" y="94.672531" gorn="0.3.0.0.0.0.0.0.0.0.0.34">GND</text>
    <text id="text6326" x="33.515579" y="94.675186" gorn="0.3.0.0.0.0.0.0.0.0.0.35">3V3</text>
   </g>
  </g>
  <path id="path6453" d="m190.98 80.536v-19.135h-10.336v-7.9629h10.406v-10.381h-10.312v-8.9863h10.336v-9.8223h-17.48v2h15.48v5.8223h-10.336v12.986h10.312v6.3809h-10.406v11.963h10.336v6.7539h-18.461v2h18.461v6.3809h-18.74v2z" color="#000000" color-rendering="auto" dominant-baseline="auto" enable-background="accumulate" image-rendering="auto" shape-rendering="auto" solid-color="#000000" stroke-width="2" style="font-feature-settings:normal;font-variant-alternates:normal;font-variant-caps:normal;font-variant-ligatures:normal;font-variant-numeric:normal;font-variant-position:normal;isolation:auto;mix-blend-mode:normal;shape-padding:0;text-decoration-color:#000000;text-decoration-line:none;text-decoration-style:solid;text-indent:0;text-orientation:mixed;text-transform:none;white-space:normal" gorn="0.3.0.0.0.0.0.0.0.0.0.37"/>
 </g>
 <g id="copper1" gorn="0.3.1">
  <g id="copper0" fill="none" stroke="#ffbf00" stroke-width="1.7575" gorn="0.3.1.0">
   <path id="connector15pad" d="m36.757 93.147c1.3564 0 2.456 1.0996 2.456 2.456 0 1.3564-1.0996 2.456-2.456 2.456-1.3564 0-2.456-1.0996-2.456-2.456 0-1.3564 1.0996-2.456 2.456-2.456z" gorn="0.3.1.0.0"/>
   <path id="connector16pad" d="m45.77 93.147c1.3564 0 2.456 1.0996 2.456 2.456 0 1.3564-1.0996 2.456-2.456 2.456-1.3564 0-2.456-1.0996-2.456-2.456 0-1.3564 1.0996-2.456 2.456-2.456z" gorn="0.3.1.0.1"/>
   <path id="connector17pad" d="m54.782 93.147c1.3564 0 2.456 1.0996 2.456 2.456 0 1.3564-1.0996 2.456-2.456 2.456s-2.456-1.0996-2.456-2.456c0-1.3564 1.0996-2.456 2.456-2.456z" gorn="0.3.1.0.2"/>
   <path id="connector18pad" d="m63.795 93.147c1.3564 0 2.456 1.0996 2.456 2.456 0 1.3564-1.0996 2.456-2.456 2.456-1.3564 0-2.456-1.0996-2.456-2.456 0-1.3564 1.0996-2.456 2.456-2.456z" gorn="0.3.1.0.3"/>
   <path id="connector19pad" d="m72.808 93.147c1.3564 0 2.456 1.0996 2.456 2.456 0 1.3564-1.0996 2.456-2.456 2.456-1.3564 0-2.456-1.0996-2.456-2.456 0-1.3564 1.0996-2.456 2.456-2.456z" gorn="0.3.1.0.4"/>
   <path id="connector33pin" d="m81.821 93.147c1.3564 0 2.456 1.0996 2.456 2.456 0 1.3564-1.0996 2.456-2.456 2.456-1.3564 0-2.456-1.0996-2.456-2.456 0-1.3564 1.0996-2.456 2.456-2.456z" gorn="0.3.1.0.5"/>
   <path id="connector34pin" d="m90.834 93.147c1.3564 0 2.456 1.0996 2.456 2.456 0 1.3564-1.0996 2.456-2.456 2.456-1.3564 0-2.456-1.0996-2.456-2.456 0-1.3564 1.0996-2.456 2.456-2.456z" gorn="0.3.1.0.6"/>
   <path id="connector35pin" d="m99.847 93.147c1.3564 0 2.456 1.0996 2.456 2.456 0 1.3564-1.0996 2.456-2.456 2.456s-2.456-1.0996-2.456-2.456c0-1.3564 1.0996-2.456 2.456-2.456z" gorn="0.3.1.0.7"/>
   <path id="connector36pin" d="m108.86 93.147c1.3564 0 2.456 1.0996 2.456 2.456 0 1.3564-1.0996 2.456-2.456 2.456s-2.456-1.0996-2.456-2.456c0-1.3564 1.0996-2.456 2.456-2.456z" gorn="0.3.1.0.8"/>
   <path id="connector37pin" d="m117.87 93.147c1.3564 0 2.456 1.0996 2.456 2.456 0 1.3564-1.0996 2.456-2.456 2.456-1.3564 0-2.456-1.0996-2.456-2.456 0-1.3564 1.0996-2.456 2.456-2.456z" gorn="0.3.1.0.9"/>
   <path id="connector38pin" d="m126.89 93.147c1.3564 0 2.456 1.0996 2.456 2.456 0 1.3564-1.0996 2.456-2.456 2.456s-2.456-1.0996-2.456-2.456c0-1.3564 1.0996-2.456 2.456-2.456z" gorn="0.3.1.0.10"/>
   <path id="connector39pin" d="m135.9 93.147c1.3564 0 2.456 1.0996 2.456 2.456 0 1.3564-1.0996 2.456-2.456 2.456s-2.456-1.0996-2.456-2.456c0-1.3564 1.0996-2.456 2.456-2.456z" gorn="0.3.1.0.11"/>
   <path id="connector40pin" d="m144.91 93.147c1.3564 0 2.456 1.0996 2.456 2.456 0 1.3564-1.0996 2.456-2.456 2.456s-2.456-1.0996-2.456-2.456c0-1.3564 1.0996-2.456 2.456-2.456z" gorn="0.3.1.0.12"/>
   <path id="connector41pin" d="m153.92 93.147c1.3564 0 2.456 1.0996 2.456 2.456 0 1.3564-1.0996 2.456-2.456 2.456s-2.456-1.0996-2.456-2.456c0-1.3564 1.0996-2.456 2.456-2.456z" gorn="0.3.1.0.13"/>
   <path id="connector42pin" d="m162.94 93.147c1.3564 0 2.456 1.0996 2.456 2.456 0 1.3564-1.0996 2.456-2.456 2.456s-2.456-1.0996-2.456-2.456c0-1.3564 1.0996-2.456 2.456-2.456z" gorn="0.3.1.0.14"/>
   <path id="connector14pad" d="m36.757 3.0174c1.3564 0 2.456 1.0996 2.456 2.456 0 1.3564-1.0996 2.456-2.456 2.456-1.3564 0-2.456-1.0996-2.456-2.456 0-1.3564 1.0996-2.456 2.456-2.456z" gorn="0.3.1.0.15"/>
   <path id="connector13pad" d="m45.77 3.0174c1.3564 0 2.456 1.0996 2.456 2.456 0 1.3564-1.0996 2.456-2.456 2.456-1.3564 0-2.456-1.0996-2.456-2.456 0-1.3564 1.0996-2.456 2.456-2.456z" gorn="0.3.1.0.16"/>
   <path id="connector12pad" d="m54.782 3.0174c1.3564 0 2.456 1.0996 2.456 2.456 0 1.3564-1.0996 2.456-2.456 2.456s-2.456-1.0996-2.456-2.456c0-1.3564 1.0996-2.456 2.456-2.456z" gorn="0.3.1.0.17"/>
   <path id="connector11pad" d="m63.795 3.0174c1.3564 0 2.456 1.0996 2.456 2.456 0 1.3564-1.0996 2.456-2.456 2.456-1.3564 0-2.456-1.0996-2.456-2.456 0-1.3564 1.0996-2.456 2.456-2.456z" gorn="0.3.1.0.18"/>
   <path id="connector10pad" d="m72.808 3.0174c1.3564 0 2.456 1.0996 2.456 2.456 0 1.3564-1.0996 2.456-2.456 2.456-1.3564 0-2.456-1.0996-2.456-2.456 0-1.3564 1.0996-2.456 2.456-2.456z" gorn="0.3.1.0.19"/>
   <path id="connector9pad" d="m81.821 3.0174c1.3564 0 2.456 1.0996 2.456 2.456 0 1.3564-1.0996 2.456-2.456 2.456-1.3564 0-2.456-1.0996-2.456-2.456 0-1.3564 1.0996-2.456 2.456-2.456z" gorn="0.3.1.0.20"/>
   <path id="connector8pad" d="m90.834 3.0174c1.3564 0 2.456 1.0996 2.456 2.456 0 1.3564-1.0996 2.456-2.456 2.456-1.3564 0-2.456-1.0996-2.456-2.456 0-1.3564 1.0996-2.456 2.456-2.456z" gorn="0.3.1.0.21"/>
   <path id="connector7pad" d="m99.847 3.0174c1.3564 0 2.456 1.0996 2.456 2.456 0 1.3564-1.0996 2.456-2.456 2.456s-2.456-1.0996-2.456-2.456c0-1.3564 1.0996-2.456 2.456-2.456z" gorn="0.3.1.0.22"/>
   <path id="connector6pad" d="m108.86 3.0174c1.3564 0 2.456 1.0996 2.456 2.456 0 1.3564-1.0996 2.456-2.456 2.456s-2.456-1.0996-2.456-2.456c0-1.3564 1.0996-2.456 2.456-2.456z" gorn="0.3.1.0.23"/>
   <path id="connector5pad" d="m117.87 3.0174c1.3564 0 2.456 1.0996 2.456 2.456 0 1.3564-1.0996 2.456-2.456 2.456-1.3564 0-2.456-1.0996-2.456-2.456 0-1.3564 1.0996-2.456 2.456-2.456z" gorn="0.3.1.0.24"/>
   <path id="connector4pad" d="m126.89 3.0174c1.3564 0 2.456 1.0996 2.456 2.456 0 1.3564-1.0996 2.456-2.456 2.456s-2.456-1.0996-2.456-2.456c0-1.3564 1.0996-2.456 2.456-2.456z" gorn="0.3.1.0.25"/>
   <path id="connector3pad" d="m135.9 3.0174c1.3564 0 2.456 1.0996 2.456 2.456 0 1.3564-1.0996 2.456-2.456 2.456s-2.456-1.0996-2.456-2.456c0-1.3564 1.0996-2.456 2.456-2.456z" gorn="0.3.1.0.26"/>
   <path id="connector2pad" d="m144.91 3.0174c1.3564 0 2.456 1.0996 2.456 2.456 0 1.3564-1.0996 2.456-2.456 2.456s-2.456-1.0996-2.456-2.456c0-1.3564 1.0996-2.456 2.456-2.456z" gorn="0.3.1.0.27"/>
   <path id="connector1pad" d="m153.92 3.0174c1.3564 0 2.456 1.0996 2.456 2.456 0 1.3564-1.0996 2.456-2.456 2.456s-2.456-1.0996-2.456-2.456c0-1.3564 1.0996-2.456 2.456-2.456z" gorn="0.3.1.0.28"/>
   <path id="connector0pad" d="m162.94 3.0174c1.3564 0 2.456 1.0996 2.456 2.456 0 1.3564-1.0996 2.456-2.456 2.456s-2.456-1.0996-2.456-2.456c0-1.3564 1.0996-2.456 2.456-2.456z" gorn="0.3.1.0.29"/>
  </g>
 </g>
</svg>
