<svg id="Layer_1" width=".71in" height=".71in" enable-background="new 0 0 57.6 93.77" gorn="0" version="1.1" viewBox="0 0 710 710" xmlns="http://www.w3.org/2000/svg">
 <g id="schematic" gorn="0.2">
  <rect id="frame" x="105" y="5" width="500" height="700" fill="none" stroke="#000" stroke-linecap="round" stroke-linejoin="round" stroke-width="10" gorn="0.2.0"/>
  <path id="label" d="m293.97 355h-27.539v-4.248l20.83-33.721h-20.244v-4.8633h26.338v4.248l-20.801 33.721h21.416zm30.791-11.455q0 2.8418-1.0254 5.0977-0.99609 2.2266-2.8711 3.7793-1.875 1.5527-4.5703 2.373-2.6953 0.79102-6.0645 0.79102-3.252 0-6.0938-0.52735-2.8125-0.49804-4.7168-1.4941v-5.2148q0.99609 0.46875 2.2559 0.9375 1.2891 0.43945 2.6953 0.79101 1.4062 0.35157 2.9004 0.58594 1.4941 0.20508 2.959 0.20508 4.6875 0 6.9141-1.7578 2.2559-1.7578 2.2559-5.0391 0-1.582-0.43946-2.7539-0.41015-1.1719-1.4941-2.1387-1.0547-0.9961-2.8418-1.9043-1.7871-0.9375-4.5117-2.0215-2.6074-1.0254-4.541-2.2266-1.9043-1.2305-3.1641-2.7539-1.2305-1.5234-1.8457-3.457-0.58594-1.9336-0.58594-4.3945 0-2.5781 0.9375-4.5996 0.9375-2.0215 2.6367-3.3984 1.6992-1.4062 4.043-2.1387 2.373-0.73243 5.2148-0.73243 3.4863 0 6.2695 0.67383 2.7832 0.64453 4.9512 1.6699l-1.9629 4.5703q-1.9043-0.84961-4.3359-1.4648-2.4023-0.64453-4.9805-0.64453-3.5742 0-5.5371 1.6699-1.9629 1.6406-1.9629 4.4531 0 1.6699 0.43945 2.9004 0.43945 1.2012 1.4648 2.1973 1.0254 0.9668 2.6953 1.8457 1.6992 0.84961 4.1602 1.8164 2.666 1.0547 4.6582 2.168 2.0215 1.1133 3.3692 2.5195 1.3476 1.4062 2.0215 3.252 0.70312 1.8457 0.70312 4.3652zm5.1562-2.168v-4.9219h14.531v4.9219zm47.139-7.8516q0 5.1856-0.76172 9.2871-0.73242 4.1016-2.4024 6.9434-1.6406 2.8418-4.248 4.3359t-6.3281 1.4941q-3.457 0-6.0352-1.4941-2.5488-1.4941-4.248-4.3359-1.6699-2.8418-2.5195-6.9434-0.82031-4.1016-0.82031-9.2871t0.73242-9.2871q0.76172-4.1016 2.373-6.9141 1.6406-2.8418 4.2188-4.3359 2.6074-1.4941 6.2988-1.4941 3.4863 0 6.0645 1.4941 2.5781 1.4648 4.2773 4.3066 1.6992 2.8125 2.5488 6.9141 0.84961 4.1016 0.84961 9.3164zm-21.943 0q0 4.3945 0.43945 7.6758t1.4062 5.4785q0.9668 2.168 2.5195 3.2812 1.582 1.084 3.8379 1.084t3.8379-1.084q1.582-1.084 2.5781-3.252 1.0254-2.168 1.4648-5.4492 0.46875-3.3106 0.46875-7.7344 0-4.3945-0.46875-7.6758-0.43945-3.2812-1.4648-5.4492-0.9961-2.168-2.5781-3.252-1.582-1.084-3.8379-1.084t-3.8379 1.084q-1.5527 1.084-2.5195 3.252t-1.4062 5.4492-0.43945 7.6758zm56.602 11.865h-6.2402v9.6094h-5.1562v-9.6094h-19.775v-4.6582l19.424-28.799h5.5078v28.594h6.2402zm-11.396-4.8633v-10.43q0-1.6406 0.0293-3.4277 0.0586-1.8164 0.11719-3.5156 0.0586-1.7285 0.11719-3.2227 0.0879-1.4941 0.11718-2.4902h-0.26367q-0.20508 0.58593-0.52734 1.3184-0.29297 0.70312-0.67383 1.4355-0.35156 0.70313-0.73242 1.377-0.38086 0.67382-0.70313 1.1426l-12.041 17.812zm42.129 14.473h-26.719v-4.5703l10.254-11.162q2.1973-2.373 3.9258-4.3359 1.7285-1.9629 2.9297-3.8379 1.2305-1.875 1.875-3.75 0.64453-1.9043 0.64453-4.1309 0-1.7285-0.49805-3.0469-0.49805-1.3184-1.4356-2.2266-0.9082-0.9375-2.168-1.4062-1.2598-0.46875-2.8125-0.46875-2.7832 0-5.0391 1.1426-2.2266 1.1133-4.248 2.8711l-2.9883-3.4863q1.1719-1.0547 2.5195-1.9629 1.3476-0.9375 2.9004-1.6113 1.5527-0.67383 3.2812-1.0547 1.7285-0.41016 3.6328-0.41016 2.8125 0 5.0684 0.79102 2.2852 0.79102 3.8672 2.2852 1.582 1.4648 2.4316 3.6035 0.8789 2.1094 0.8789 4.7754 0 2.4902-0.79101 4.7461-0.76172 2.2559-2.1387 4.4531-1.3477 2.168-3.252 4.3652-1.875 2.1973-4.0723 4.5703l-8.2324 8.7598v0.23438h20.186z" aria-label="ZS-042" gorn="0.2.1"/>
  <g fill="#555555" font-family="Droid Sans" font-size="49" text-anchor="end">
   <text id="gnd-label" x="585.0" y="517.0" gorn="0.2.15">GND</text>
   <text id="vcc-label" x="585.0" y="417.0" gorn="0.2.17">VCC</text>
   <text id="sda-label" x="585.0" y="317.0" gorn="0.2.19">SDA</text>
   <text id="scl-label" x="585.0" y="217.0" gorn="0.2.21">SCL</text>
  </g>
  <g fill="none">
   <line id="gnd-pin" x1="605" x2="705" y1="505" y2="505" stroke="#555" stroke-linecap="round" stroke-width="10" gorn="0.2.34"/>
   <rect id="gnd-terminal" x="700" y="500" width="10" height="10" stroke-width="0" gorn="0.2.35"/>
   <line id="vcc-pin" x1="605" x2="705" y1="405" y2="405" stroke="#555" stroke-linecap="round" stroke-width="10" gorn="0.2.36"/>
   <rect id="vcc-terminal" x="700" y="400" width="10" height="10" stroke-width="0" gorn="0.2.37"/>
   <line id="sda-pin" x1="605" x2="705" y1="305" y2="305" stroke="#555" stroke-linecap="round" stroke-width="10" gorn="0.2.38"/>
   <rect id="sda-terminal" x="700" y="300" width="10" height="10" stroke-width="0" gorn="0.2.39"/>
   <line id="scl-pin" x1="605" x2="705" y1="205" y2="205" stroke="#555" stroke-linecap="round" stroke-width="10" gorn="0.2.40"/>
   <rect id="scl-terminal" x="700" y="200" width="10" height="10" stroke-width="0" gorn="0.2.41"/>
  </g>
 </g>
</svg>
