<svg id="svg170" width="1.4961in" height=".92341in" enable-background="new 0 0 107.72 62.36" gorn="0" version="1.1" viewBox="0 0 107.72 66.486" xmlns="http://www.w3.org/2000/svg">
 <g id="breadboard" transform="translate(.0043946 2.9749)" gorn="0.2.0.0.0">
  <g id="board">
   <path id="pcb" d="m5.3716-1.4819e-4v0.0058594c-2.311 1.125-4.197 2.9225-5.376 5.1255v51.871c1.125 2.303 2.9187 4.1824 5.1167 5.3584h97.307c2.275-1.127 4.1329-2.9065 5.2969-5.0845v-51.92c-1.126-2.302-2.9187-4.1795-5.1167-5.3555zm18.655 3.2798c1.692 0 3.063 1.371 3.063 3.063s-1.371 3.063-3.063 3.063c-1.691 0-3.063-1.371-3.063-3.063s1.371-3.063 3.063-3.063zm73.512 49.281c2.123 0 3.8438 1.7208 3.8438 3.8438s-1.7208 3.8438-3.8438 3.8438-3.8438-1.7208-3.8438-3.8438 1.7208-3.8438 3.8438-3.8438zm-73.512 0.79249c1.692 0 3.063 1.371 3.063 3.063s-1.6191 3.063-3.063 3.063-3.063-1.371-3.063-3.063 1.371-3.063 3.063-3.063z" fill="#113753"/>
   <g id="screw-holes" fill="#b5b5b6">
    <path id="screw-hole-upper-left" d="m24.031 2.5c-2.123 0-3.844 1.721-3.844 3.844s1.721 3.844 3.844 3.844 3.844-1.721 3.844-3.844-1.721-3.844-3.844-3.844zm0 6.906c-1.691 0-3.063-1.371-3.063-3.063s1.371-3.063 3.063-3.063 3.063 1.371 3.063 3.063-1.371 3.063-3.063 3.063z" gorn="0.2.0.0.0.0.3"/>
    <path id="screw-hole-lower-left" d="m24.031 52.573c-2.123 0-3.844 1.721-3.844 3.844s1.721 3.844 3.844 3.844 3.844-1.721 3.844-3.844-1.721-3.844-3.844-3.844zm0 6.906c-1.691 0-3.063-1.371-3.063-3.063s1.371-3.063 3.063-3.063 3.063 1.371 3.063 3.063-1.371 3.063-3.063 3.063z" gorn="0.2.0.0.0.0.4"/>
    <path id="screw-hole-lower-right" d="m97.539 52.56c-2.123 0-3.8438 1.7208-3.8438 3.8438s1.7208 3.8438 3.8438 3.8438 3.8438-1.7208 3.8438-3.8438-1.7208-3.8438-3.8438-3.8438zm0 0.78077c1.692 0 3.063 1.371 3.063 3.063s-1.372 3.063-3.063 3.063-3.063-1.371-3.063-3.063 1.371-3.063 3.063-3.063z"/>
   </g>
  </g>
  <g id="battery-holder" gorn="0.2.0.0.0.0">
   <ellipse id="negative-terminal" cx="58.521" cy="30.268" rx="33.237" ry="33.243" stroke-width="1.0117" gorn="0.2.0.0.0.0.16"/>
   <rect id="positive-terminal" x="18.924" y="18.516" width="15.541" height="21.601" stroke-width=".73056" gorn="0.2.0.0.0.0.17"/>
  </g>
  <g id="pins" transform="scale(-1)" fill="#fff" stroke="#9a916c" stroke-width="1.44">
   <circle id="scl-pin" cx="-104.36" cy="-42.173" r="2.088" gorn="0.2.0.0.0.0.9.0.0.0.0.0.0.0"/>
   <circle id="sda-pin" cx="-104.36" cy="-34.973" r="2.088" gorn="0.2.0.0.0.0.8.0.0.0.0.0.0.0"/>
   <circle id="vcc-pin" cx="-104.36" cy="-27.806" r="2.088" gorn="0.2.0.0.0.0.7.0.0.0.0.0.0.0"/>
   <circle id="gnd-pin" cx="-104.36" cy="-20.606" r="2.088" gorn="0.2.0.0.0.0.6.0.0.0.0.0.0.0"/>
  </g>
 </g>
</svg>
